<?xml version="1.0" standalone="no"?>
<!DOCTYPE svg PUBLIC "-//W3C//DTD SVG 20010904//EN"
 "http://www.w3.org/TR/2001/REC-SVG-20010904/DTD/svg10.dtd">
<svg version="1.0" xmlns="http://www.w3.org/2000/svg"
 width="1024.000000pt" height="1024.000000pt" viewBox="0 0 1024.000000 1024.000000"
 preserveAspectRatio="xMidYMid meet">
<metadata>
Created by potrace 1.11, written by Peter Selinger 2001-2013
</metadata>
<g transform="translate(0.000000,1024.000000) scale(0.100000,-0.100000)"
fill="#000000" stroke="none">
<path d="M6680 9810 c-52 -10 -133 -30 -180 -45 -94 -30 -269 -114 -344 -165
-75 -51 -183 -157 -234 -230 -26 -36 -49 -67 -53 -70 -4 -3 -13 -21 -22 -41
-17 -42 -717 -1099 -727 -1099 -11 0 -708 1051 -726 1095 -9 22 -20 42 -24 45
-5 3 -26 31 -47 62 -164 241 -461 402 -820 443 -122 13 -330 13 -418 -1 -365
-59 -697 -296 -848 -608 -164 -336 -127 -705 100 -1011 33 -44 82 -100 109
-125 97 -88 124 -110 132 -110 4 0 17 -8 28 -18 22 -20 186 -118 260 -155 70
-35 170 -67 262 -82 65 -11 -104 -13 -1128 -15 -663 -1 -1222 -3 -1242 -6
-280 -29 -551 -222 -673 -479 -23 -48 -57 -148 -71 -210 -4 -16 -9 -251 -11
-521 l-4 -491 210 1 211 1 1 -25 c0 -14 2 -1091 4 -2395 3 -2573 0 -2418 56
-2571 75 -205 260 -400 457 -484 100 -42 161 -57 277 -68 98 -10 7775 -7 7855
2 36 5 73 12 83 17 9 6 17 8 17 5 0 -3 24 3 53 13 313 108 534 372 582 696 5
28 9 1118 10 2423 1 1305 5 2376 9 2379 4 4 98 7 209 8 l202 0 0 480 c0 264
-4 499 -8 523 -54 289 -259 535 -537 646 -25 10 -56 20 -70 22 -14 3 -32 7
-40 10 -18 7 -52 13 -105 18 -22 3 -580 5 -1239 5 -660 1 -1197 3 -1195 5 2 2
29 7 59 10 163 19 319 90 570 258 49 32 184 164 232 226 31 39 96 146 116 192
141 315 108 661 -90 954 -148 218 -398 391 -667 461 -182 47 -411 57 -581 25z
m-3170 -549 c52 -17 104 -35 115 -40 89 -38 115 -55 140 -90 14 -22 33 -42 41
-45 8 -3 14 -12 14 -21 0 -8 6 -15 13 -15 6 -1 37 -40 69 -88 31 -48 100 -154
154 -237 53 -82 120 -186 149 -230 75 -114 165 -255 165 -258 0 -2 -265 -2
-589 -2 -558 0 -590 1 -609 18 -11 11 -40 23 -64 28 -23 6 -50 16 -58 23 -8 8
-26 17 -40 21 -87 25 -215 178 -252 299 -20 68 -28 179 -15 236 9 44 49 144
72 180 45 71 208 195 294 223 92 31 123 35 211 32 72 -3 118 -11 190 -34z
m3620 3 c282 -112 425 -354 360 -608 -11 -43 -35 -103 -54 -135 -52 -84 -176
-201 -214 -201 -8 0 -25 -9 -39 -20 -14 -11 -38 -20 -53 -20 -15 0 -37 -9 -50
-20 -13 -11 -30 -21 -39 -21 -49 -5 -1171 -4 -1171 1 1 3 32 52 70 110 37 58
146 225 241 373 95 147 178 272 186 278 7 6 13 16 13 21 0 5 19 29 43 51 23
23 51 53 62 68 33 42 140 90 296 133 122 34 247 30 349 -10z m-3893 -1580 c-3
-3 -12 -4 -19 -1 -8 3 -5 6 6 6 11 1 17 -2 13 -5z"/>
</g>
</svg>
